<svg width="174" height="43" viewBox="0 0 174 43" fill="none" xmlns="http://www.w3.org/2000/svg">
<path fill-rule="evenodd" clip-rule="evenodd" d="M88.145 38.3538C88.145 38.3538 89.1709 37.8078 90.9703 37.0732C91.8974 37.56 93.9293 38.5741 95.8969 39.1981C98.5599 40.0425 100.335 39.9125 102.82 39.9125C105.306 39.9125 108.856 39.4578 108.856 39.4578C108.856 39.4578 108.323 37.3144 108.264 35.7554C108.205 34.1961 108.205 33.9364 108.205 33.9364C108.205 33.9364 107.672 36.1451 107.791 37.3144C107.909 38.4834 107.909 38.8734 107.909 38.8734C107.909 38.8734 103.235 39.3931 99.9209 39.0031C96.6071 38.6134 94.5952 38.2234 93.175 37.7041C92.3925 37.4175 91.6461 37.171 91.1334 37.0069C93.6438 35.9923 97.5724 34.6479 102.288 33.8717C110.572 32.5074 108.915 32.962 108.915 32.962C108.915 32.962 109.093 32.5723 110.158 32.4427C111.223 32.3127 122.111 31.728 125.484 31.9877C128.857 32.2474 138.147 32.7673 139.508 33.7417C140.869 34.716 141.402 35.6904 140.987 38.0938C140.573 40.4974 139.745 42.8361 138.976 42.3161C138.206 41.7965 135.603 39.5881 133.117 39.1981C130.632 38.8084 127.91 38.8734 126.786 39.1981C125.661 39.5231 123.768 40.8221 122.88 40.4975C121.993 40.1728 120.217 38.3538 118.797 39.0034C117.377 39.6531 117.318 39.8478 116.667 40.7571C116.016 41.6668 115.128 42.7062 114.418 41.7318C113.708 40.7572 112.406 40.3025 111.282 40.2375C110.158 40.1728 109.152 40.5625 108.856 40.8871C108.56 41.2121 108.146 41.8615 108.146 41.8615C108.146 41.8615 106.312 41.3421 104.181 41.6018C102.051 41.8615 98.3823 42.0565 95.8969 41.5368C93.4115 41.0171 88.145 38.3538 88.145 38.3538V38.3538ZM110.513 39.1331C110.513 39.1331 112.88 38.6784 113.768 39.3928C114.655 40.1075 114.833 40.6922 116.43 39.2631C118.028 37.8338 119.034 36.7944 120.809 37.8338C122.584 38.8734 123.413 39.5228 125.129 38.5485C126.845 37.5741 130.573 36.5348 133.709 37.9638C136.845 39.3928 139.272 41.6665 139.745 40.2375C140.218 38.8081 140.455 37.2491 138.029 36.6647C135.603 36.0801 131.993 35.4304 128.68 36.0151C125.366 36.5997 124.774 38.2885 123.413 37.8338C122.052 37.3791 120.573 36.0151 118.916 36.7294C117.259 37.4441 115.839 39.6528 114.478 38.9381C113.117 38.2238 112.17 37.5741 111.341 38.0288C110.513 38.4835 110.513 39.1331 110.513 39.1331V39.1331Z" fill="#1F1C21"/>
<path d="M2.15638 0.342795V10.0029H2.56173C2.59305 9.44913 2.67105 8.88944 2.80114 8.33008C2.92582 7.76478 3.08694 7.22263 3.2899 6.70296C3.48745 6.18891 3.71632 5.7211 3.97621 5.2983C4.23127 4.88175 4.51194 4.54456 4.80885 4.28175C5.02718 4.08238 5.30786 3.89364 5.65628 3.71115C6.00471 3.52834 6.42088 3.37991 6.90452 3.26585C7.39357 3.14585 7.95009 3.08868 8.58431 3.08305H15.1998L1.28247 24.1162L1.34481 24.3219H21.4723V13.2228H21.0667C21.0354 13.8512 20.9779 14.4902 20.8948 15.1355C20.8065 15.7808 20.6869 16.409 20.5309 17.0196C20.3695 17.6305 20.1666 18.1958 19.9172 18.7211C19.6676 19.2408 19.3658 19.6917 19.0069 20.0742C18.5545 20.5367 18.076 20.8735 17.5767 21.0907C17.0723 21.3076 16.573 21.4444 16.0683 21.5016C15.5693 21.5644 15.0908 21.587 14.6382 21.5813H7.77303L21.6283 0.548112L21.4723 0.342795H2.15638V0.342795ZM27.7445 20.4854C27.7497 20.7648 27.7394 21.0504 27.7084 21.3473C27.6822 21.6441 27.6093 21.941 27.5003 22.2266C27.391 22.5122 27.2088 22.7804 26.9646 23.0204C26.7303 23.2313 26.4707 23.3972 26.1738 23.5057C25.8829 23.62 25.5811 23.6997 25.2691 23.7453C24.9569 23.791 24.6605 23.825 24.3745 23.8425L23.8441 23.8766V24.3219H45.7499V13.9078H45.3443L45.2509 14.9702C45.2039 15.5352 45.1311 16.0949 45.0377 16.6655C44.9386 17.2308 44.7826 17.7789 44.5592 18.3098C44.3406 18.8467 44.0183 19.3376 43.597 19.8001C43.4669 19.9486 43.2745 20.1257 43.0249 20.3251C42.7749 20.5251 42.4581 20.7195 42.0678 20.9076C41.6778 21.102 41.2096 21.2617 40.6636 21.3876C40.1173 21.5129 39.4831 21.5757 38.7601 21.5813H31.6139V4.17925C31.6088 3.97925 31.6191 3.72833 31.6507 3.43146C31.6766 3.1346 31.7491 2.82618 31.8584 2.5065C31.9732 2.18651 32.1497 1.90152 32.3942 1.64434C32.6179 1.42747 32.8778 1.26746 33.1742 1.15933C33.4762 1.04496 33.7828 0.964981 34.1002 0.919044C34.4121 0.873733 34.7088 0.839341 34.9843 0.822153L35.5149 0.788097V0.342795H23.8441V0.788097L24.3745 0.822153C24.6503 0.839341 24.9466 0.873733 25.264 0.919044C25.5757 0.964981 25.8829 1.04496 26.1843 1.15933C26.4809 1.26746 26.7411 1.42747 26.9646 1.64434C27.2088 1.90152 27.391 2.18651 27.5003 2.5065C27.6093 2.82618 27.6822 3.1346 27.7084 3.43146C27.7394 3.72833 27.7497 3.97925 27.7445 4.17925V20.4854V20.4854ZM57.2647 0L50.4619 18.0189C50.2333 18.6067 50.0252 19.1092 49.8379 19.5204C49.6506 19.9314 49.4895 20.2742 49.3492 20.5479C49.2085 20.8163 49.089 21.0335 48.9956 21.2045C48.8966 21.3876 48.7562 21.6101 48.5845 21.8613C48.4129 22.1123 48.1946 22.3694 47.9293 22.6319C47.6691 22.8891 47.3574 23.1232 46.9879 23.3288C46.6238 23.5341 46.2025 23.6825 45.7189 23.7741L45.1259 23.8766V24.3219H56.3288V23.8766L55.5485 23.8081C55.2419 23.7853 54.914 23.7281 54.5656 23.6369C54.2171 23.5456 53.8895 23.4028 53.5772 23.2144C53.2655 23.026 53.0054 22.7804 52.8027 22.4719C52.6359 22.2154 52.5217 21.9129 52.4542 21.5588C52.3916 21.2104 52.3705 20.8504 52.4021 20.4798C52.4278 20.1145 52.5006 19.7717 52.6154 19.4576L53.8013 16.2718H61.7897L63.1939 20.0401C63.2771 20.251 63.3448 20.4798 63.4071 20.7307C63.4695 20.9876 63.5005 21.2335 63.5059 21.4788C63.5005 21.9869 63.4123 22.3922 63.2355 22.6891C63.0638 22.9916 62.8401 23.2144 62.57 23.3628C62.4291 23.4541 62.2577 23.5282 62.0601 23.5853C61.8623 23.6425 61.6235 23.6941 61.332 23.7338C61.0408 23.7741 60.6818 23.8081 60.2608 23.8425L59.7925 23.8766V24.3219H72.0252V23.8766L71.5257 23.8425C71.1564 23.8194 70.7921 23.7509 70.4334 23.6369C70.0747 23.5281 69.7468 23.3853 69.4454 23.2144C69.1385 23.0432 68.8886 22.8488 68.6859 22.6438C68.504 22.4438 68.3269 22.181 68.1607 21.8613C67.989 21.536 67.8017 21.1076 67.5885 20.571C67.3804 20.0401 67.1202 19.3608 66.8137 18.5326L59.9175 0H57.2647V0ZM61.0097 13.8737H54.5812L57.7643 5.44673H57.8266L61.0097 13.8737ZM81.4492 3.08305H83.7584C83.9403 3.07743 84.1694 3.08867 84.445 3.1118C84.7206 3.13461 85.0169 3.18024 85.3394 3.26023C85.6619 3.33429 85.9841 3.45398 86.3067 3.61429C86.6343 3.77991 86.9361 4.00239 87.2221 4.28175C87.4823 4.54456 87.7163 4.89298 87.9295 5.33266C88.1373 5.77202 88.3249 6.25763 88.4806 6.78856C88.642 7.32511 88.7718 7.86791 88.8709 8.41571C88.9694 8.96382 89.032 9.48319 89.0633 9.96881H89.469V0.342795H69.5601V9.96881H69.9657C69.9967 9.48319 70.0642 8.96382 70.1633 8.41571C70.2569 7.86791 70.3867 7.32511 70.5479 6.78856C70.7041 6.25763 70.8911 5.77202 71.1046 5.33266C71.3127 4.89298 71.5467 4.54456 71.8066 4.28175C72.0927 4.00239 72.3944 3.77991 72.7218 3.61429C73.0446 3.45398 73.3671 3.33429 73.6897 3.26023C74.0119 3.18024 74.3085 3.13461 74.5841 3.1118C74.8596 3.08867 75.0885 3.07743 75.2707 3.08305H77.5798V20.4854C77.585 20.6851 77.5747 20.9363 77.5431 21.2335C77.5172 21.5304 77.4446 21.8385 77.3353 22.1582C77.2263 22.4719 77.0441 22.7632 76.7996 23.0204C76.5758 23.2313 76.3159 23.3972 76.0196 23.5057C75.7176 23.62 75.411 23.6941 75.0987 23.7453C74.7816 23.791 74.485 23.8194 74.2094 23.8425L73.6788 23.8766V24.3219H85.3496V23.8766L84.8193 23.8425C84.5435 23.8194 84.2472 23.791 83.9352 23.7453C83.6181 23.6941 83.3109 23.62 83.0094 23.5057C82.7128 23.3972 82.4532 23.2313 82.2292 23.0204C81.9849 22.7632 81.8079 22.4719 81.6935 22.1582C81.5844 21.8385 81.5115 21.5304 81.4854 21.2335C81.4543 20.9363 81.4441 20.6851 81.4492 20.4854V3.08305V3.08305ZM121.205 0.342795H111.843L106.008 16.6146H105.914L100.079 0.342795H90.3429V0.788097L90.8735 0.822153C91.149 0.839341 91.4454 0.873733 91.7628 0.919044C92.0745 0.964981 92.3816 1.04496 92.6831 1.15933C92.9797 1.26746 93.2399 1.42747 93.4633 1.64434C93.7076 1.90152 93.8898 2.18651 93.9991 2.5065C94.1081 2.82618 94.181 3.1346 94.2071 3.43146C94.2382 3.72833 94.2484 3.97925 94.2433 4.17925V19.8001C94.2484 20.0629 94.2331 20.3823 94.202 20.7592C94.1707 21.136 94.0978 21.5185 93.9837 21.9013C93.8744 22.2838 93.6973 22.6091 93.4633 22.8835C93.2606 23.1004 93.0005 23.2772 92.6939 23.4144C92.3867 23.5513 92.0693 23.6541 91.7471 23.7225C91.4195 23.791 91.1283 23.8309 90.8735 23.8425L90.3429 23.8766V24.3219H100.859V23.8766L100.328 23.8425C100.074 23.8309 99.7825 23.791 99.4549 23.7225C99.1324 23.6541 98.8152 23.5513 98.5081 23.4144C98.2015 23.2772 97.9413 23.1004 97.7387 22.8835C97.5514 22.6719 97.4056 22.4266 97.3014 22.141C97.1924 21.8557 97.1147 21.5644 97.0677 21.2616C97.0207 20.9648 96.9897 20.6851 96.9741 20.4282C96.9635 20.1654 96.9584 19.9601 96.9584 19.8001V3.66553H97.0521L104.479 24.3219H105.914L113.341 3.66553H113.435V20.4854C113.44 20.6851 113.43 20.9363 113.398 21.2335C113.372 21.5304 113.305 21.8385 113.19 22.1582C113.081 22.4719 112.899 22.7632 112.655 23.0204C112.431 23.2313 112.171 23.3972 111.875 23.5057C111.573 23.62 111.266 23.6941 110.954 23.7453C110.637 23.791 110.34 23.8194 110.064 23.8425L109.534 23.8766V24.3219H121.205V23.8766L120.674 23.8425C120.399 23.8194 120.102 23.791 119.79 23.7453C119.473 23.6941 119.166 23.62 118.87 23.5057C118.568 23.3972 118.308 23.2313 118.084 23.0204C117.84 22.7632 117.663 22.4719 117.548 22.1582C117.44 21.8385 117.367 21.5304 117.341 21.2335C117.315 20.9363 117.299 20.6851 117.305 20.4854V4.17925C117.299 3.97925 117.315 3.72833 117.341 3.43146C117.367 3.1346 117.44 2.82618 117.548 2.5065C117.663 2.18651 117.84 1.90152 118.084 1.64434C118.308 1.42747 118.568 1.26746 118.87 1.15933C119.166 1.04496 119.473 0.964981 119.79 0.919044C120.102 0.873733 120.399 0.839341 120.674 0.822153L121.205 0.788097V0.342795V0.342795ZM132.657 0L125.854 18.0189C125.626 18.6067 125.418 19.1092 125.23 19.5204C125.043 19.9314 124.882 20.2742 124.742 20.5479C124.601 20.8163 124.481 21.0335 124.388 21.2045C124.289 21.3876 124.149 21.6101 123.977 21.8613C123.805 22.1123 123.587 22.3694 123.322 22.6319C123.062 22.8891 122.75 23.1232 122.38 23.3288C122.016 23.5341 121.595 23.6825 121.112 23.7741L120.518 23.8766V24.3219H131.721V23.8766L130.941 23.8081C130.634 23.7853 130.306 23.7281 129.958 23.6369C129.61 23.5456 129.282 23.4028 128.97 23.2144C128.658 23.026 128.398 22.7804 128.195 22.4719C128.028 22.2154 127.914 21.9129 127.847 21.5588C127.784 21.2104 127.763 20.8504 127.795 20.4798C127.82 20.1145 127.893 19.7717 128.008 19.4576L129.194 16.2718H137.182L138.586 20.0401C138.669 20.251 138.737 20.4798 138.8 20.7307C138.862 20.9876 138.893 21.2335 138.898 21.4788C138.893 21.9869 138.805 22.3922 138.628 22.6891C138.456 22.9916 138.233 23.2144 137.962 23.3628C137.821 23.4541 137.65 23.5282 137.453 23.5853C137.255 23.6425 137.016 23.6941 136.724 23.7338C136.433 23.7741 136.074 23.8081 135.653 23.8425L135.185 23.8766V24.3219H147.418V23.8766L146.918 23.8425C146.549 23.8194 146.184 23.7509 145.826 23.6369C145.467 23.5281 145.14 23.3853 144.838 23.2144C144.531 23.0432 144.281 22.8488 144.078 22.6438C143.896 22.4438 143.72 22.181 143.553 21.8613C143.381 21.536 143.194 21.1076 142.981 20.571C142.773 20.0401 142.513 19.3608 142.206 18.5326L135.31 0H132.657V0ZM136.402 13.8737H129.974L133.157 5.44673H133.219L136.402 13.8737ZM146.294 0.342795V0.788097L146.887 0.92527C147.267 1.02214 147.657 1.20466 148.057 1.46746C148.458 1.72996 148.843 2.03243 149.212 2.38086C149.581 2.72929 149.909 3.07743 150.195 3.42554L157.403 12.2297L151.318 20.0058C151.214 20.1486 151.064 20.3195 150.876 20.5251C150.689 20.7307 150.481 20.9479 150.263 21.1704C150.039 21.3932 149.831 21.5988 149.628 21.787C149.43 21.9757 149.264 22.1241 149.134 22.2323C148.645 22.6263 148.115 22.9688 147.542 23.2488C146.976 23.5281 146.414 23.7397 145.857 23.8766V24.3219H158.121V23.8766L157.372 23.8081C156.784 23.751 156.332 23.6766 156.009 23.5913C155.692 23.4997 155.479 23.4369 155.375 23.3972C155.151 23.3056 154.943 23.1916 154.746 23.0375C154.548 22.8891 154.381 22.7004 154.257 22.4607C154.132 22.2266 154.07 21.9354 154.064 21.5813C154.07 21.3132 154.137 21.0335 154.262 20.7367C154.387 20.4398 154.527 20.1654 154.688 19.9145C154.85 19.6632 154.985 19.4632 155.094 19.3204L159.057 14.2506L163.332 19.4232C163.556 19.6861 163.764 19.9601 163.962 20.2398C164.159 20.5251 164.326 20.8107 164.451 21.1076C164.575 21.3988 164.638 21.6957 164.643 21.9926C164.638 22.3294 164.555 22.6091 164.388 22.8319C164.227 23.0488 164.008 23.2257 163.738 23.3628C163.452 23.5169 163.119 23.6313 162.75 23.7056C162.381 23.7797 162.011 23.825 161.647 23.8425L160.742 23.8766V24.3219H173.848V23.8766C173.505 23.8309 173.131 23.7338 172.73 23.5853C172.324 23.4369 171.898 23.2029 171.446 22.8835C170.879 22.4494 170.327 21.9298 169.802 21.3132C169.277 20.702 168.72 20.0282 168.138 19.2864L161.491 11.1331L165.704 5.78953C166.005 5.40704 166.323 5.00144 166.656 4.56739C166.994 4.13334 167.352 3.71114 167.737 3.29991C168.117 2.88898 168.533 2.51804 168.98 2.19211C169.256 1.99837 169.558 1.80963 169.896 1.63308C170.234 1.45621 170.588 1.30777 170.957 1.17621C171.321 1.04496 171.68 0.947789 172.039 0.890603L172.663 0.788097V0.342795H160.118V0.788097L160.898 0.856546C161.471 0.907795 161.938 0.999014 162.303 1.12464C162.666 1.25057 162.947 1.40464 163.145 1.57589C163.374 1.76432 163.54 1.96994 163.634 2.19837C163.728 2.43243 163.775 2.689 163.769 2.98024C163.764 3.32305 163.722 3.62551 163.634 3.89926C163.551 4.168 163.447 4.40208 163.322 4.6077C163.197 4.81332 163.077 4.99017 162.958 5.1386L159.837 9.14665L155.406 3.73395C155.24 3.52833 155.12 3.34586 155.057 3.18586C154.995 3.02618 154.964 2.87775 154.969 2.74056C154.964 2.47776 155.021 2.2212 155.151 1.96995C155.276 1.7184 155.505 1.4959 155.843 1.30185C156.004 1.22154 156.191 1.14746 156.41 1.08496C156.628 1.02215 156.852 0.970602 157.076 0.930915C157.299 0.896541 157.502 0.868108 157.684 0.856546L158.402 0.788097V0.342795H146.294V0.342795Z" fill="#1F1C21"/>
<path d="M1.2186 35.6121C1.3524 35.52 1.50041 35.4359 1.66239 35.3575C1.82436 35.28 1.99544 35.2171 2.17535 35.17C2.35667 35.1215 2.54028 35.0978 2.7256 35.0956C2.98407 35.0956 3.2101 35.1446 3.40253 35.2406C3.59667 35.3381 3.74611 35.479 3.85457 35.6649C3.9616 35.8528 4.01682 36.0812 4.01882 36.3512C4.01682 36.5546 3.97412 36.744 3.88673 36.9202C3.80105 37.0958 3.68007 37.2483 3.52522 37.3815C3.37207 37.5143 3.19215 37.618 2.98549 37.6924C2.7811 37.7665 2.55822 37.8039 2.31939 37.8058H1.90265V38.5802H2.32992C2.51581 38.5802 2.70083 38.5939 2.88586 38.6249C3.0726 38.6542 3.24938 38.7049 3.41676 38.7752C3.58243 38.8461 3.73187 38.9399 3.86196 39.0567C3.99205 39.1742 4.09539 39.3189 4.16997 39.4908C4.24655 39.663 4.28412 39.8686 4.28583 40.1051C4.28583 40.3961 4.22178 40.6545 4.09539 40.8792C3.96701 41.1061 3.78169 41.282 3.53802 41.4111C3.29179 41.5382 2.99461 41.6045 2.63992 41.607C2.43924 41.6045 2.2394 41.581 2.04156 41.536C1.8423 41.491 1.65499 41.4323 1.48078 41.3604C1.304 41.2879 1.14944 41.2095 1.01564 41.1254L0.770264 41.9236C1.05122 42.1032 1.3524 42.236 1.67492 42.3185C1.99688 42.4001 2.32308 42.4417 2.65101 42.4395C2.91632 42.4395 3.1745 42.4123 3.42728 42.357C3.68205 42.3023 3.91861 42.2182 4.14008 42.1032C4.3624 41.9879 4.55654 41.8395 4.72591 41.6592C4.89471 41.4773 5.02679 41.2626 5.12273 41.0105C5.21894 40.7583 5.26706 40.4686 5.26877 40.1405C5.26193 39.7586 5.18308 39.4286 5.02993 39.1474C4.87678 38.8658 4.67012 38.6389 4.4071 38.4708C4.14322 38.3027 3.84432 38.1989 3.50586 38.1574V38.1346C3.7871 38.0618 4.03817 37.9346 4.26049 37.7549C4.48366 37.5749 4.66187 37.3521 4.79139 37.0858C4.92148 36.8205 4.98752 36.5252 4.99122 36.1987C4.98752 35.7899 4.89842 35.4415 4.7205 35.1543C4.5423 34.8672 4.29636 34.6459 3.97954 34.4934C3.66214 34.3412 3.29549 34.2647 2.87504 34.2631C2.48164 34.2647 2.12695 34.3219 1.81183 34.4287C1.49871 34.5387 1.2186 34.6809 0.973224 34.8612L1.2186 35.6121V35.6121ZM7.0106 34.4034V37.7355C7.0126 38.0539 7.00689 38.3827 6.99266 38.7189C6.98014 39.0552 6.95338 39.3799 6.91239 39.6942C6.86998 40.0092 6.80735 40.293 6.72195 40.547C6.63656 40.8008 6.52268 41.0045 6.38007 41.1608C6.29097 41.2567 6.18081 41.3442 6.04532 41.4248C5.90953 41.5033 5.76891 41.5558 5.62117 41.5833L5.73873 42.4042C5.87964 42.4026 6.01656 42.3848 6.15405 42.3479C6.28926 42.3123 6.41737 42.2654 6.53692 42.2085C6.65591 42.152 6.75925 42.0932 6.85005 42.0289C7.04988 41.8764 7.21556 41.6829 7.34878 41.4501C7.48086 41.2154 7.5859 40.9517 7.66389 40.6586C7.74274 40.3633 7.80139 40.0499 7.83868 39.7177C7.87796 39.3833 7.90272 39.0436 7.91354 38.6936C7.92607 38.3433 7.93148 37.9974 7.92948 37.653V35.2603H10.3021V42.3104H11.2424V34.4034H7.0106V34.4034ZM16.5749 39.8236L17.3444 42.3104H18.3381L15.8803 34.4034H14.769L12.311 42.3104H13.2729L14.0207 39.8236H16.5749V39.8236ZM14.2131 39.0258L14.9185 36.7384C14.9931 36.4959 15.0591 36.2552 15.1163 36.0127C15.175 35.7721 15.2302 35.5356 15.282 35.3068H15.3031C15.3549 35.5337 15.4121 35.7687 15.4707 36.0071C15.5296 36.2452 15.5988 36.4918 15.6768 36.7496L16.3933 39.0258H14.2131V39.0258ZM20.7634 42.3104H21.7037V35.2718H23.9055V34.4034H18.5732V35.2718H20.7634V42.3104V42.3104ZM27.6129 34.2631C27.1304 34.2647 26.6852 34.3628 26.281 34.5584C25.8748 34.7537 25.5241 35.0334 25.2252 35.3968C24.9257 35.7624 24.6943 36.1987 24.5301 36.7071C24.3644 37.2174 24.281 37.7861 24.279 38.4161C24.281 39.0158 24.3593 39.5611 24.5161 40.0539C24.673 40.5451 24.8936 40.9689 25.1805 41.3255C25.4674 41.6811 25.8093 41.9545 26.2044 42.1479C26.5998 42.3398 27.0362 42.4376 27.517 42.4395C27.8859 42.4395 28.2383 42.3807 28.5714 42.2654C28.9044 42.152 29.211 41.9798 29.4886 41.7532C29.7667 41.5264 30.0089 41.247 30.2133 40.9108C30.4185 40.5764 30.5791 40.1892 30.6907 39.7489C30.8028 39.3089 30.8601 38.8168 30.8618 38.2749C30.8601 37.6824 30.7835 37.143 30.632 36.6543C30.4809 36.1637 30.2631 35.7409 29.9785 35.3853C29.6952 35.0278 29.3533 34.7518 28.9545 34.5584C28.5571 34.3643 28.1088 34.2647 27.6129 34.2631V34.2631ZM27.581 35.0956C27.891 35.0978 28.1689 35.1584 28.4151 35.2799C28.6625 35.399 28.876 35.5649 29.0596 35.7743C29.2432 35.9852 29.3963 36.2281 29.5173 36.5015C29.6386 36.7752 29.7294 37.0687 29.7897 37.3774C29.8484 37.6883 29.8788 38.0033 29.8788 38.3221C29.8788 38.7736 29.8273 39.198 29.7257 39.593C29.6238 39.988 29.4743 40.3355 29.2788 40.6367C29.0809 40.938 28.8404 41.1745 28.5535 41.3467C28.2671 41.5164 27.9391 41.6029 27.5705 41.607C27.2747 41.6045 27.0063 41.5483 26.7638 41.4364C26.5215 41.3229 26.3078 41.1664 26.121 40.9654C25.9337 40.7639 25.7769 40.5273 25.6505 40.2595C25.5224 39.9895 25.4259 39.6964 25.3604 39.3799C25.2964 39.0633 25.2622 38.7343 25.2622 38.3924C25.2622 38.0465 25.2926 37.7102 25.3553 37.3871C25.4153 37.0646 25.5084 36.7637 25.6325 36.4862C25.7558 36.2103 25.9107 35.9677 26.0957 35.759C26.281 35.5515 26.4985 35.3893 26.7461 35.2734C26.9935 35.1565 27.2711 35.0978 27.581 35.0956V35.0956ZM31.2785 34.4034L33.6722 39.753C33.7149 39.8452 33.7417 39.9252 33.7488 39.9977C33.7556 40.0695 33.7417 40.148 33.7044 40.2342C33.6458 40.377 33.5743 40.5273 33.4889 40.6817C33.4032 40.8383 33.3036 40.9826 33.1877 41.1198C33.0719 41.2567 32.9401 41.3661 32.7923 41.452C32.6443 41.5361 32.4769 41.5811 32.2936 41.5833C32.2139 41.5833 32.1462 41.581 32.0889 41.5751C32.0317 41.5695 31.9836 41.5595 31.9409 41.5483L31.8555 42.3807C31.9144 42.4042 31.9856 42.422 32.069 42.4335C32.1544 42.4451 32.2577 42.451 32.379 42.451C32.6978 42.451 32.9922 42.3692 33.2592 42.2067C33.5259 42.0426 33.7756 41.8004 34.0033 41.4773C34.1317 41.2936 34.2566 41.0864 34.3756 40.852C34.4969 40.617 34.6127 40.3689 34.7249 40.1051C34.8373 39.8411 34.9458 39.5711 35.0491 39.2974C35.1539 39.0217 35.2538 38.7524 35.3503 38.4861L36.8675 34.4034H35.884L34.7517 37.7589C34.6663 38.0383 34.5877 38.2961 34.5162 38.5311C34.4454 38.7636 34.3773 38.9808 34.3133 39.1783H34.2814C34.2011 38.9499 34.1191 38.7205 34.0337 38.4902C33.9483 38.2611 33.859 38.0287 33.7684 37.7943L32.3366 34.4034H31.2785V34.4034ZM42.4773 41.2429C42.351 41.3092 42.2066 41.3679 42.043 41.417C41.879 41.4658 41.7048 41.5033 41.5192 41.5301C41.3324 41.5579 41.1434 41.5711 40.9496 41.5711C40.3669 41.5676 39.8701 41.4382 39.4605 41.1801C39.0509 40.9223 38.7372 40.5567 38.52 40.0817C38.3031 39.6083 38.1938 39.0452 38.1923 38.3924C38.1938 37.8718 38.2615 37.4108 38.3936 37.0059C38.5268 36.6034 38.7178 36.2609 38.9632 35.9834C39.2109 35.7037 39.5066 35.4928 39.8508 35.3478C40.1958 35.2034 40.5787 35.1312 41.0031 35.1312C41.304 35.1331 41.5761 35.164 41.8201 35.2253C42.0646 35.2856 42.2727 35.364 42.4452 35.4593L42.6803 34.6262C42.5983 34.5775 42.4793 34.5268 42.3242 34.4722C42.1693 34.419 41.9792 34.3725 41.7546 34.335C41.528 34.2959 41.2664 34.2768 40.9704 34.2747C40.4099 34.2768 39.9006 34.3765 39.4406 34.574C38.9811 34.7715 38.5857 35.0531 38.2527 35.4187C37.9196 35.7843 37.6632 36.2218 37.4833 36.7284C37.3017 37.2368 37.2111 37.804 37.2088 38.4274C37.2125 39.0786 37.3016 39.6533 37.4778 40.1536C37.6543 40.6523 37.9017 41.0708 38.2228 41.4095C38.5416 41.7492 38.9157 42.0054 39.3461 42.1792C39.7756 42.3513 40.2456 42.4395 40.7571 42.4395C41.0506 42.4376 41.3199 42.4198 41.5659 42.3848C41.8112 42.3479 42.029 42.3007 42.214 42.2442C42.3991 42.1873 42.5471 42.1286 42.6593 42.0639L42.4773 41.2429ZM45.2018 42.3104H46.1423V35.2718H48.3442V34.4034H43.0117V35.2718H45.2018V42.3104V42.3104ZM52.0516 34.2631C51.5691 34.2647 51.1239 34.3628 50.7194 34.5584C50.3135 34.7537 49.9628 35.0334 49.6636 35.3968C49.3641 35.7624 49.133 36.1987 48.9688 36.7071C48.8031 37.2174 48.7197 37.7861 48.7177 38.4161C48.7197 39.0158 48.7977 39.5611 48.9545 40.0539C49.1114 40.5451 49.3323 40.9689 49.6192 41.3255C49.9062 41.6811 50.248 41.9545 50.6429 42.1479C51.0383 42.3398 51.4746 42.4376 51.9557 42.4395C52.3243 42.4395 52.6767 42.3807 53.0098 42.2654C53.3428 42.152 53.6497 41.9798 53.9273 41.7532C54.2051 41.5264 54.4476 41.247 54.652 40.9108C54.8573 40.5764 55.0175 40.1892 55.1294 39.7489C55.2415 39.3089 55.2988 38.8168 55.3002 38.2749C55.2988 37.6824 55.2222 37.143 55.0705 36.6543C54.9196 36.1637 54.7018 35.7409 54.4172 35.3853C54.1339 35.0278 53.7917 34.7518 53.3932 34.5584C52.9958 34.3643 52.5472 34.2647 52.0516 34.2631V34.2631ZM52.0197 35.0956C52.3297 35.0978 52.6076 35.1584 52.8535 35.2799C53.1012 35.399 53.3147 35.5649 53.4983 35.7743C53.6819 35.9852 53.835 36.2281 53.956 36.5015C54.0773 36.7752 54.1681 37.0687 54.2281 37.3774C54.2871 37.6883 54.3175 38.0033 54.3175 38.3221C54.3175 38.7736 54.266 39.198 54.1644 39.593C54.0625 39.988 53.913 40.3355 53.7175 40.6367C53.5196 40.938 53.2791 41.1745 52.9921 41.3467C52.7058 41.5164 52.3779 41.6029 52.0092 41.607C51.7135 41.6045 51.4447 41.5483 51.2025 41.4364C50.9602 41.3229 50.7462 41.1664 50.5594 40.9654C50.3724 40.7639 50.2156 40.5273 50.0892 40.2595C49.9611 39.9895 49.8646 39.6964 49.7991 39.3799C49.7351 39.0633 49.7009 38.7343 49.7009 38.3924C49.7009 38.0465 49.7314 37.7102 49.7937 37.3871C49.8541 37.0646 49.9469 36.7637 50.0713 36.4862C50.1945 36.2103 50.3491 35.9677 50.5344 35.759C50.7194 35.5515 50.9372 35.3893 51.1848 35.2734C51.4322 35.1565 51.7097 35.0978 52.0197 35.0956V35.0956ZM56.5077 42.2867C56.6628 42.3104 56.8621 42.3316 57.1044 42.3513C57.3469 42.3691 57.6301 42.3788 57.9504 42.3807C58.5385 42.3807 59.0372 42.322 59.4468 42.201C59.8579 42.0795 60.1858 41.8942 60.4298 41.642C60.6185 41.4542 60.7702 41.2292 60.8801 40.9654C60.9908 40.7011 61.0475 40.3983 61.0498 40.058C61.0475 39.7648 61.0014 39.5048 60.9142 39.2795C60.8251 39.0552 60.7093 38.8593 60.5636 38.6993C60.4172 38.5368 60.2587 38.4061 60.0842 38.3043C59.9114 38.2024 59.7369 38.1305 59.5644 38.0874V38.0521C59.8155 37.9524 60.0307 37.8155 60.2126 37.6434C60.3939 37.4712 60.5345 37.2721 60.6327 37.0452C60.7307 36.8184 60.7805 36.5759 60.7822 36.3156C60.7805 36.0046 60.7255 35.7312 60.6185 35.4987C60.51 35.2659 60.362 35.0725 60.1733 34.92C60.029 34.7868 59.8633 34.6775 59.6766 34.5934C59.4892 34.5093 59.2738 34.4468 59.0335 34.4059C58.7913 34.3643 58.5154 34.3447 58.2069 34.3447C57.9914 34.3447 57.7796 34.3528 57.5712 34.3665C57.3625 34.3822 57.1684 34.4019 56.9871 34.4287C56.8035 34.4547 56.6449 34.4859 56.5077 34.5209V42.2867V42.2867ZM57.4374 35.2015C57.5106 35.1818 57.6122 35.1665 57.7437 35.1525C57.8755 35.1387 58.0486 35.1312 58.2604 35.1312C58.5758 35.129 58.8516 35.174 59.085 35.2622C59.3204 35.35 59.5035 35.4887 59.6336 35.6806C59.7637 35.8699 59.8297 36.1165 59.8311 36.4215C59.8311 36.6777 59.7688 36.9065 59.6461 37.1077C59.5234 37.3071 59.3466 37.4655 59.1155 37.5805C58.8858 37.698 58.6076 37.7568 58.282 37.7589H57.4374V35.2015V35.2015ZM57.4374 38.5214H58.2069C58.4633 38.5214 58.7022 38.5508 58.9265 38.6096C59.1494 38.6683 59.3466 38.7599 59.5177 38.883C59.6885 39.0061 59.8223 39.1645 59.9188 39.358C60.0147 39.5495 60.0646 39.7805 60.0663 40.0464C60.0646 40.3314 60.0127 40.5745 59.9131 40.7714C59.8135 40.9689 59.6766 41.1279 59.5035 41.247C59.3287 41.3661 59.1331 41.452 58.9123 41.5048C58.6916 41.5579 58.4596 41.5851 58.2174 41.5833C58.0523 41.5833 57.9042 41.5792 57.7759 41.5736C57.6458 41.5654 57.5336 41.5539 57.4374 41.536V38.5214V38.5214ZM67.1404 41.2429C67.014 41.3092 66.8697 41.3679 66.7063 41.417C66.542 41.4658 66.3678 41.5033 66.1822 41.5301C65.9955 41.5579 65.8067 41.5711 65.6126 41.5711C65.0299 41.5676 64.5331 41.4382 64.1235 41.1801C63.7139 40.9223 63.4002 40.5567 63.1833 40.0817C62.9661 39.6083 62.8571 39.0452 62.8554 38.3924C62.8571 37.8718 62.9245 37.4108 63.0569 37.0059C63.1901 36.6034 63.3808 36.2609 63.6265 35.9834C63.8739 35.7037 64.1696 35.4928 64.5138 35.3478C64.8588 35.2034 65.2417 35.1312 65.6661 35.1312C65.9673 35.1331 66.2394 35.164 66.4834 35.2253C66.7276 35.2856 66.936 35.364 67.1085 35.4593L67.3433 34.6262C67.2616 34.5775 67.1426 34.5268 66.9872 34.4722C66.8326 34.419 66.6422 34.3725 66.4176 34.335C66.191 34.2959 65.9294 34.2768 65.6336 34.2747C65.0729 34.2768 64.5636 34.3765 64.1036 34.574C63.6441 34.7715 63.2488 35.0531 62.9157 35.4187C62.5827 35.7843 62.3262 36.2218 62.1463 36.7284C61.9649 37.2368 61.8741 37.804 61.8721 38.4274C61.8756 39.0786 61.9649 39.6533 62.1412 40.1536C62.3174 40.6523 62.5647 41.0708 62.8858 41.4095C63.2047 41.7492 63.5787 42.0054 64.0094 42.1792C64.4389 42.3513 64.9086 42.4395 65.4201 42.4395C65.7139 42.4376 65.9829 42.4198 66.2289 42.3848C66.4742 42.3479 66.692 42.3007 66.8771 42.2442C67.0624 42.1873 67.2101 42.1286 67.3223 42.0639L67.1404 41.2429V41.2429ZM68.4973 34.4034V42.3104H69.427V38.6855H69.7265C70.0291 38.6855 70.2893 38.7286 70.5065 38.8127C70.722 38.8986 70.9073 39.0177 71.0587 39.1742C71.2099 39.3286 71.3383 39.5145 71.4433 39.7298C71.5503 39.9445 71.6431 40.183 71.7248 40.4448C71.7926 40.6545 71.8603 40.8676 71.9278 41.0845C71.9955 41.3035 72.0667 41.5164 72.1413 41.726C72.2164 41.9332 72.2981 42.1285 72.3872 42.3104H73.3813C73.2794 42.076 73.1851 41.8373 73.0995 41.597C73.0141 41.3542 72.9324 41.1082 72.8504 40.8539C72.7687 40.5998 72.681 40.3395 72.5902 40.0695C72.5011 39.8017 72.4015 39.5536 72.2893 39.3252C72.1791 39.0961 72.0468 38.8927 71.8922 38.7149C71.7391 38.5368 71.5554 38.3883 71.34 38.2708C71.1245 38.1533 70.868 38.0733 70.5705 38.0287L73.2956 34.4034H72.1843L69.7157 37.9111H69.427V34.4034H68.4973V34.4034ZM74.2891 34.4034V42.3104H75.2828L77.5376 38.3686C77.7873 37.933 78.0261 37.4908 78.2572 37.0434C78.4892 36.5956 78.6956 36.154 78.8735 35.7174L78.9054 35.7296C78.8809 36.0599 78.863 36.3899 78.8505 36.7202C78.8379 37.0531 78.8311 37.4008 78.8257 37.7624C78.822 38.1265 78.82 38.5189 78.82 38.9433V42.3104H79.6965V34.4034H78.767L76.4374 38.4743C76.1755 38.9418 75.9332 39.393 75.7104 39.827C75.488 40.2595 75.2888 40.6817 75.112 41.0904L75.0798 41.0789C75.1015 40.7289 75.1177 40.3748 75.1297 40.0189C75.1425 39.663 75.1513 39.2973 75.1587 38.9205C75.1638 38.5427 75.1655 38.1477 75.1655 37.7355V34.4034H74.2891V34.4034ZM85.0398 37.7589H82.2507V35.2603H85.2109V34.4034H81.3102V42.3104H85.3712V41.4542H82.2507V38.6036H85.0398V37.7589V37.7589ZM145.463 34.4034V42.3104H146.404V38.6036H149.888V42.3104H150.828V34.4034H149.888V37.7118H146.404V34.4034H145.463ZM155.348 34.2631C154.865 34.2647 154.42 34.3628 154.016 34.5584C153.61 34.7537 153.259 35.0334 152.96 35.3968C152.66 35.7624 152.429 36.1987 152.265 36.7071C152.099 37.2174 152.016 37.7861 152.014 38.4161C152.016 39.0158 152.094 39.5611 152.251 40.0539C152.408 40.5451 152.628 40.9689 152.915 41.3255C153.202 41.6811 153.544 41.9545 153.939 42.1479C154.335 42.3398 154.771 42.4376 155.252 42.4395C155.621 42.4395 155.973 42.3807 156.306 42.2654C156.639 42.152 156.946 41.9798 157.223 41.7532C157.501 41.5264 157.744 41.247 157.948 40.9108C158.153 40.5764 158.314 40.1892 158.425 39.7489C158.538 39.3089 158.595 38.8168 158.596 38.2749C158.595 37.6824 158.518 37.143 158.367 36.6543C158.216 36.1637 157.998 35.7409 157.713 35.3853C157.43 35.0278 157.088 34.7518 156.69 34.5584C156.292 34.3643 155.844 34.2647 155.348 34.2631V34.2631ZM155.316 35.0956C155.626 35.0978 155.904 35.1584 156.15 35.2799C156.397 35.399 156.611 35.5649 156.794 35.7743C156.978 35.9852 157.131 36.2281 157.252 36.5015C157.373 36.7752 157.464 37.0687 157.524 37.3774C157.583 37.6883 157.614 38.0033 157.614 38.3221C157.614 38.7736 157.562 39.198 157.46 39.593C157.359 39.988 157.209 40.3355 157.013 40.6367C156.816 40.938 156.575 41.1745 156.288 41.3467C156.002 41.5164 155.674 41.6029 155.305 41.607C155.009 41.6045 154.741 41.5483 154.499 41.4364C154.256 41.3229 154.042 41.1664 153.856 40.9654C153.668 40.7639 153.512 40.5273 153.385 40.2595C153.257 39.9895 153.161 39.6964 153.095 39.3799C153.031 39.0633 152.997 38.7343 152.997 38.3924C152.997 38.0465 153.027 37.7102 153.09 37.3871C153.15 37.0646 153.243 36.7637 153.367 36.4862C153.491 36.2103 153.645 35.9677 153.83 35.759C154.016 35.5515 154.233 35.3893 154.481 35.2734C154.729 35.1565 155.006 35.0978 155.316 35.0956V35.0956ZM159.227 34.4034L161.77 38.0405C161.491 38.0793 161.25 38.1533 161.045 38.2652C160.842 38.3768 160.666 38.5189 160.518 38.6952C160.372 38.8714 160.244 39.0764 160.134 39.3089C160.025 39.542 159.925 39.8002 159.836 40.0817C159.76 40.328 159.685 40.5764 159.612 40.8267C159.54 41.0767 159.464 41.3254 159.384 41.5736C159.303 41.8217 159.211 42.0679 159.109 42.3104H160.06C160.139 42.1326 160.21 41.9351 160.278 41.7198C160.343 41.5048 160.408 41.2895 160.468 41.0708C160.529 40.852 160.588 40.6464 160.648 40.457C160.732 40.1852 160.823 39.943 160.919 39.7236C161.017 39.5064 161.133 39.3211 161.268 39.1668C161.404 39.0121 161.571 38.8927 161.77 38.8105C161.968 38.7286 162.21 38.6855 162.497 38.6855H162.829V42.3104H163.726V38.6855H164.046C164.333 38.6855 164.575 38.7286 164.775 38.8105C164.973 38.8927 165.14 39.0121 165.275 39.1668C165.411 39.3211 165.526 39.5064 165.624 39.7236C165.72 39.943 165.812 40.1852 165.895 40.457C165.952 40.6464 166.009 40.852 166.07 41.0708C166.129 41.2895 166.192 41.5048 166.258 41.7198C166.326 41.9351 166.401 42.1326 166.483 42.3104H167.434C167.336 42.0679 167.247 41.8217 167.17 41.5736C167.094 41.3254 167.019 41.0748 166.95 40.8226C166.88 40.5704 166.806 40.3201 166.728 40.0695C166.64 39.7864 166.54 39.5283 166.429 39.2933C166.319 39.0592 166.189 38.8536 166.039 38.6758C165.89 38.5002 165.712 38.3574 165.505 38.2474C165.299 38.1402 165.054 38.0693 164.773 38.0405L167.327 34.4034H166.248L164.014 37.9111H163.726V34.4034H162.829V37.9111H162.539L160.306 34.4034H159.227V34.4034ZM168.363 34.4034V42.3104H169.357L171.612 38.3686C171.862 37.933 172.1 37.4908 172.331 37.0434C172.563 36.5956 172.77 36.154 172.948 35.7174L172.98 35.7296C172.955 36.0599 172.937 36.3899 172.925 36.7202C172.912 37.0531 172.905 37.4008 172.9 37.7624C172.896 38.1265 172.894 38.5189 172.894 38.9433V42.3104H173.771V34.4034H172.841L170.512 38.4743C170.25 38.9418 170.007 39.393 169.785 39.827C169.562 40.2595 169.363 40.6817 169.186 41.0904L169.154 41.0789C169.176 40.7289 169.192 40.3748 169.204 40.0189C169.217 39.663 169.225 39.2973 169.233 38.9205C169.238 38.5427 169.24 38.1477 169.24 37.7355V34.4034H168.363V34.4034Z" fill="#1F1C21"/>
</svg>
